# xmcd
# 
# Track frame offsets:
#     150
#     1438
#     18360
#     39570
#     60975
#     86303
#     105738
#     134443
#     154443
#     176253
#     197775
#     214770
# 
# Disc length: 3201
# 
# Revision: 1
# Processed by: cddbd v1.5.2PL0 Copyright (c) Steve Scherf et al.
# Submitted via: BonkEnc v1.0.5
# 
DISCID=970c7f0c
DTITLE=ランクヘッド - 地図
DYEAR=2004
DGENRE=Rock
TTITLE0=音
TTITLE1=冬の朝
TTITLE2=プリズム
TTITLE3=白い声
TTITLE4=夜行バス
TTITLE5=白濁
TTITLE6=その間５メートル
TTITLE7=前進／僕／戦場へ (アルバム・バージョン)
TTITLE8=灰空
TTITLE9=三月
TTITLE10=千川通りは夕風だった
TTITLE11=金木犀
EXTD=YEAR: 2004
EXTT0=
EXTT1=
EXTT2=
EXTT3=
EXTT4=
EXTT5=
EXTT6=
EXTT7=
EXTT8=
EXTT9=
EXTT10=
EXTT11=
PLAYORDER=
